<svg width="148" height="160" viewBox="0 0 148 160" fill="none" xmlns="http://www.w3.org/2000/svg">
<path d="M131.753 14.9359H25.3151C24.7444 14.9359 24.2817 15.3998 24.2817 15.9721V158.964C24.2817 159.536 24.7444 160 25.3151 160H131.753C132.323 160 132.786 159.536 132.786 158.964V15.9721C132.786 15.3998 132.323 14.9359 131.753 14.9359Z" fill="white"/>
<path d="M131.753 160H25.3151C25.0411 160 24.7785 159.89 24.5848 159.696C24.391 159.502 24.2821 159.239 24.2817 158.964V15.9721C24.2821 15.6974 24.391 15.434 24.5848 15.2397C24.7785 15.0455 25.0411 14.9362 25.3151 14.9359H131.753C132.027 14.9362 132.289 15.0455 132.483 15.2397C132.677 15.434 132.786 15.6974 132.786 15.9721V158.964C132.786 159.239 132.677 159.502 132.483 159.696C132.289 159.89 132.027 160 131.753 160ZM25.3151 15.454C25.1781 15.4541 25.0468 15.5088 24.9499 15.6059C24.8531 15.703 24.7986 15.8347 24.7984 15.9721V158.964C24.7986 159.101 24.8531 159.233 24.9499 159.33C25.0468 159.427 25.1781 159.482 25.3151 159.482H131.753C131.89 159.482 132.021 159.427 132.118 159.33C132.215 159.233 132.269 159.101 132.269 158.964V15.9721C132.269 15.8347 132.215 15.703 132.118 15.6059C132.021 15.5088 131.89 15.4541 131.753 15.454H25.3151Z" fill="#CACACA"/>
<path d="M116.509 47.4126H40.5562C40.0424 47.4126 39.5495 47.2079 39.1861 46.8436C38.8228 46.4792 38.6187 45.9851 38.6187 45.4698C38.6187 44.9545 38.8228 44.4604 39.1861 44.096C39.5495 43.7317 40.0424 43.527 40.5562 43.527H116.509C117.023 43.527 117.516 43.7317 117.879 44.096C118.243 44.4604 118.447 44.9545 118.447 45.4698C118.447 45.9851 118.243 46.4792 117.879 46.8436C117.516 47.2079 117.023 47.4126 116.509 47.4126Z" fill="#E6E6E6"/>
<path d="M116.509 59.9762H40.5562C40.0424 59.9762 39.5495 59.7715 39.1861 59.4072C38.8228 59.0428 38.6187 58.5487 38.6187 58.0334C38.6187 57.5181 38.8228 57.024 39.1861 56.6596C39.5495 56.2953 40.0424 56.0906 40.5562 56.0906H116.509C117.023 56.0906 117.516 56.2953 117.879 56.6596C118.243 57.024 118.447 57.5181 118.447 58.0334C118.447 58.5487 118.243 59.0428 117.879 59.4072C117.516 59.7715 117.023 59.9762 116.509 59.9762Z" fill="#E6E6E6"/>
<path d="M116.509 72.5398H40.5562C40.0424 72.5398 39.5495 72.3351 39.1861 71.9708C38.8228 71.6064 38.6187 71.1123 38.6187 70.597C38.6187 70.0817 38.8228 69.5876 39.1861 69.2232C39.5495 68.8589 40.0424 68.6542 40.5562 68.6542H116.509C117.023 68.6542 117.516 68.8589 117.879 69.2232C118.243 69.5876 118.447 70.0817 118.447 70.597C118.447 71.1123 118.243 71.6064 117.879 71.9708C117.516 72.3351 117.023 72.5398 116.509 72.5398Z" fill="#E6E6E6"/>
<path d="M116.509 85.1034H40.5562C40.0424 85.1034 39.5495 84.8987 39.1861 84.5344C38.8228 84.17 38.6187 83.6759 38.6187 83.1606C38.6187 82.6453 38.8228 82.1512 39.1861 81.7868C39.5495 81.4225 40.0424 81.2178 40.5562 81.2178H116.509C117.023 81.2178 117.516 81.4225 117.879 81.7868C118.243 82.1512 118.447 82.6453 118.447 83.1606C118.447 83.6759 118.243 84.17 117.879 84.5344C117.516 84.8987 117.023 85.1034 116.509 85.1034Z" fill="#E6E6E6"/>
<path d="M116.509 97.667H40.5562C40.0424 97.667 39.5495 97.4623 39.1861 97.098C38.8228 96.7336 38.6187 96.2395 38.6187 95.7242C38.6187 95.2089 38.8228 94.7148 39.1861 94.3504C39.5495 93.9861 40.0424 93.7814 40.5562 93.7814H116.509C117.023 93.7814 117.516 93.9861 117.879 94.3504C118.243 94.7148 118.447 95.2089 118.447 95.7242C118.447 96.2395 118.243 96.7336 117.879 97.098C117.516 97.4623 117.023 97.667 116.509 97.667Z" fill="#E6E6E6"/>
<path d="M40.4529 71.6266C40.4065 71.7888 40.3729 71.9543 40.3525 72.1218L26.89 78.9353L23.822 76.9278L20.1953 81.1746L25.2823 85.2577C25.6932 85.5876 26.1998 85.7749 26.7259 85.7915C27.2521 85.8081 27.7694 85.6531 28.2003 85.3498L42.2417 75.465C42.836 75.7243 43.495 75.796 44.131 75.6705C44.767 75.5451 45.3499 75.2285 45.802 74.7628C46.2542 74.2971 46.5542 73.7044 46.6623 73.0636C46.7703 72.4227 46.6812 71.7641 46.4068 71.1753C46.1324 70.5864 45.6857 70.0953 45.1262 69.7672C44.5666 69.4392 43.9207 69.2897 43.2744 69.3387C42.628 69.3877 42.0119 69.6328 41.5079 70.0415C41.0039 70.4502 40.6359 71.0031 40.4529 71.6266Z" fill="#FFB6B6"/>
<path d="M26.4485 79.1927L21.9857 84.4837C21.8587 84.6342 21.7009 84.7555 21.5229 84.8394C21.345 84.9233 21.1511 84.9677 20.9544 84.9696C20.7578 84.9716 20.5631 84.931 20.3835 84.8507C20.2039 84.7703 20.0437 84.6522 19.9138 84.5042L15.3619 79.318C14.5971 78.6623 14.1228 77.7292 14.0432 76.7234C13.9635 75.7175 14.285 74.7211 14.9371 73.9526C15.5891 73.1841 16.5185 72.7063 17.5214 72.624C18.5243 72.5417 19.5189 72.8616 20.2869 73.5136L26.1248 77.1405C26.2919 77.2444 26.4347 77.3832 26.5435 77.5475C26.6523 77.7117 26.7245 77.8975 26.7553 78.0923C26.786 78.287 26.7745 78.4861 26.7215 78.676C26.6686 78.8659 26.5755 79.0421 26.4485 79.1927Z" fill="#FB8500"/>
<path d="M9.64456 156.752H12.8119L14.3185 144.502H9.64404L9.64456 156.752Z" fill="#FFB6B6"/>
<path d="M8.83643 155.715L15.0739 155.714C16.1281 155.715 17.1394 156.134 17.8848 156.882C18.6303 157.629 19.0491 158.643 19.0492 159.7V159.83L8.83663 159.83L8.83643 155.715Z" fill="#2F2E41"/>
<path d="M8.93115 122.639L9.83174 125.684L21.9726 123.65L20.6432 119.156L8.93115 122.639Z" fill="#FFB6B6"/>
<path d="M9.6926 121.568L11.4663 127.564C11.766 128.577 11.652 129.669 11.1493 130.598C10.6466 131.527 9.79636 132.218 8.78568 132.519L8.66184 132.555L5.75781 122.738L9.6926 121.568Z" fill="#2F2E41"/>
<path d="M117.162 125.917H66.7718C66.0619 125.917 65.4863 125.048 65.4863 123.975C65.4863 122.902 66.0619 122.032 66.7718 122.032H117.162C117.871 122.032 118.447 122.902 118.447 123.975C118.447 125.048 117.871 125.917 117.162 125.917Z" fill="#E6E6E6"/>
<path d="M117.162 137.056H66.7718C66.0619 137.056 65.4863 136.186 65.4863 135.113C65.4863 134.04 66.0619 133.171 66.7718 133.171H117.162C117.871 133.171 118.447 134.04 118.447 135.113C118.447 136.186 117.871 137.056 117.162 137.056Z" fill="#E6E6E6"/>
<path d="M132.786 29.8723C141.013 29.8723 147.682 23.1852 147.682 14.9362C147.682 6.68715 141.013 0 132.786 0C124.559 0 117.89 6.68715 117.89 14.9362C117.89 23.1852 124.559 29.8723 132.786 29.8723Z" fill="#FB8500"/>
<path d="M126.58 13.9502C126.319 13.9502 126.069 14.054 125.885 14.2389C125.7 14.4237 125.597 14.6744 125.597 14.9358C125.597 15.1973 125.7 15.448 125.885 15.6328C126.069 15.8177 126.319 15.9215 126.58 15.9215H131.803V21.1591C131.804 21.4201 131.908 21.6702 132.092 21.8545C132.276 22.0388 132.526 22.1424 132.786 22.1424C133.047 22.1424 133.296 22.0388 133.48 21.8545C133.665 21.6702 133.769 21.4201 133.769 21.1591V15.9215H138.993C139.254 15.9215 139.504 15.8177 139.688 15.6328C139.872 15.448 139.976 15.1973 139.976 14.9358C139.976 14.6744 139.872 14.4237 139.688 14.2389C139.504 14.054 139.254 13.9502 138.993 13.9502H133.769V8.71234C133.769 8.45096 133.666 8.20029 133.481 8.01546C133.297 7.83064 133.047 7.72681 132.786 7.72681C132.526 7.72681 132.276 7.83064 132.091 8.01546C131.907 8.20029 131.803 8.45096 131.803 8.71234V13.9502H126.58Z" fill="white"/>
<path d="M41.6513 116.375C41.1942 117.139 40.5489 117.772 39.7773 118.214C39.0058 118.656 38.134 118.891 37.2455 118.898L18.2097 125.009L17.3394 119.947L28.8659 113.676L17.6985 105.611L25.8802 96.0106L40.7406 109.899C41.609 110.71 42.1733 111.796 42.339 112.975C42.5048 114.154 42.262 115.354 41.6513 116.375Z" fill="#2F2E41"/>
<path d="M14.0426 150.993H9.34254C5.12249 121.988 0.82702 92.9026 13.5205 82.0461L28.4912 84.49L26.5764 97.232L18.2208 106.832L14.0426 150.993Z" fill="#2F2E41"/>
<path d="M27.5761 89.7452C21.2399 94.0746 13.055 93.0566 9.63867 86.6057C14.5472 78.3163 15.5806 72.3583 11.6293 69.6383C10.996 67.3744 11.2323 64.9546 12.2915 62.8569C13.3507 60.7591 15.1557 59.1357 17.3503 58.3073L24.8355 61.4492C31.1908 66.644 32.4425 72.271 30.0579 78.2059L27.5761 89.7452Z" fill="#FB8500"/>
<path d="M4.18621 94.8605C4.58142 94.7685 4.9517 94.5907 5.27097 94.3396C5.59024 94.0886 5.85073 93.7704 6.0341 93.4075C6.21746 93.0446 6.31924 92.6458 6.33226 92.2391C6.34529 91.8325 6.26924 91.428 6.10947 91.054L16.3405 67.8769L10.4878 66.3988L2.2714 89.6459C1.66266 89.9567 1.18876 90.4806 0.939491 91.1183C0.69022 91.756 0.682897 92.4632 0.918921 93.106C1.15495 93.7488 1.61791 94.2824 2.22009 94.6058C2.82227 94.9291 3.52183 95.0198 4.18621 94.8605Z" fill="#FFB6B6"/>
<path d="M14.9554 72.022L9.26322 69.3503C9.10126 69.2743 8.95755 69.1642 8.84186 69.0275C8.72618 68.8907 8.64124 68.7306 8.59284 68.558C8.54444 68.3854 8.5337 68.2043 8.56137 68.0272C8.58904 67.85 8.65446 67.6809 8.75318 67.5314L12.2125 62.2929C12.6054 61.4648 13.3097 60.8267 14.171 60.5183C15.0323 60.2098 15.9804 60.2563 16.8075 60.6475C17.6347 61.0387 18.2735 61.7428 18.584 62.6053C18.8945 63.4679 18.8513 64.4187 18.4639 65.2494L16.6751 71.2496C16.6238 71.4214 16.5363 71.5801 16.4183 71.7149C16.3004 71.8497 16.1548 71.9574 15.9916 72.0307C15.8284 72.104 15.6514 72.1411 15.4726 72.1396C15.2938 72.1381 15.1174 72.098 14.9554 72.022Z" fill="#FB8500"/>
<path d="M27.582 56.6007H12.5981C12.2899 56.6004 11.9944 56.4774 11.7764 56.2589C11.5585 56.0404 11.4359 55.7441 11.4355 55.435V48.9589C11.4355 46.6574 12.3474 44.4501 13.9704 42.8227C15.5934 41.1953 17.7947 40.281 20.0901 40.281C22.3854 40.281 24.5867 41.1953 26.2097 42.8227C27.8328 44.4501 28.7446 46.6574 28.7446 48.9589V55.435C28.7442 55.7441 28.6216 56.0404 28.4037 56.2589C28.1857 56.4774 27.8902 56.6004 27.582 56.6007Z" fill="#2F2E41"/>
<path d="M22.2256 56.5023C25.7299 56.5023 28.5707 53.6538 28.5707 50.14C28.5707 46.6261 25.7299 43.7776 22.2256 43.7776C18.7212 43.7776 15.8804 46.6261 15.8804 50.14C15.8804 53.6538 18.7212 56.5023 22.2256 56.5023Z" fill="#FFB6B6"/>
<path d="M30.7915 49.6066H21.6292L21.5353 48.2876L21.0655 49.6066H19.6547L19.4685 46.9924L18.5374 49.6066H15.8076V49.4771C15.8097 47.6571 16.5316 45.9122 17.815 44.6253C19.0985 43.3384 20.8386 42.6145 22.6537 42.6124H23.9454C25.7605 42.6145 27.5007 43.3384 28.7841 44.6253C30.0676 45.9122 30.7895 47.6571 30.7915 49.4771V49.6066Z" fill="#2F2E41"/>
</svg>
