<svg width="565" height="565" viewBox="0 0 565 565" fill="none" xmlns="http://www.w3.org/2000/svg">
<circle cx="282.5" cy="282.5" r="282.5" fill="#F6F8F1"/>
<g clip-path="url(#clip0_803_212)">
<path d="M272.497 431.462C284.923 435.337 292.995 444.887 290.527 452.791C288.058 460.696 275.985 463.96 263.555 460.082C258.569 458.601 254.009 455.948 250.259 452.345L197.816 435.262L206.361 410.833L257.153 430.267C262.289 429.435 267.551 429.845 272.497 431.462Z" fill="#FFB6B6"/>
<path d="M160.149 252.219C147.645 250.739 136.131 259.187 133.801 271.556C125.493 315.676 107.846 411.083 110.17 413.406C113.195 416.43 226.147 449.696 226.147 449.696L239.258 421.47L164.629 385.179L180.996 279.656C183.074 266.26 173.617 253.814 160.149 252.219Z" fill="#023047"/>
<path d="M296.228 477.354C284.104 482.088 271.832 479.672 268.819 471.959C265.807 464.245 273.193 454.157 285.323 449.423C290.142 447.466 295.361 446.69 300.541 447.162L352.168 427.753L360.763 452.163L308.956 468.706C305.466 472.563 301.101 475.529 296.228 477.354Z" fill="#A0616A"/>
<path d="M370.679 267.837C383.056 265.52 395.112 273.175 398.267 285.36C409.523 328.822 433.545 422.828 431.382 425.301C428.567 428.522 318.107 469.301 318.107 469.301L303.128 442.019L375.149 400.797L351.724 296.611C348.751 283.385 357.349 270.332 370.679 267.837Z" fill="#023047"/>
<path d="M151.291 258.557L157.442 220.129L115.923 203.221L109.771 261.631L151.291 258.557Z" fill="#FFB6B6"/>
<path d="M393.785 264.606L387.634 226.178L429.154 209.269L435.305 267.68L393.785 264.606Z" fill="#A0616A"/>
<path d="M140.799 232.482C164.183 232.482 183.139 213.534 183.139 190.16C183.139 166.786 164.183 147.837 140.799 147.837C117.415 147.837 98.4587 166.786 98.4587 190.16C98.4587 213.534 117.415 232.482 140.799 232.482Z" fill="#FFB6B6"/>
<path d="M137.42 133.26C138.645 133.975 140.286 132.894 140.679 131.531C141.072 130.169 140.614 128.722 140.16 127.378L137.876 120.615C136.256 115.818 134.536 110.854 131.027 107.203C125.731 101.692 117.314 100.29 109.737 101.306C100.007 102.61 90.4065 107.877 85.8822 116.586C81.358 125.295 83.2841 137.447 91.4592 142.88C79.8079 156.229 75.7465 171.106 76.3878 188.809C77.029 206.513 96.3296 222.806 108.916 235.277C111.727 233.574 114.282 225.592 112.737 222.693C111.191 219.793 113.406 216.434 111.491 213.763C109.577 211.092 107.975 215.345 109.911 212.689C111.132 211.013 106.366 207.158 108.181 206.155C116.961 201.304 119.881 190.365 125.396 181.988C132.047 171.883 143.431 165.041 155.478 163.905C162.114 163.28 169.124 164.413 174.563 168.264C180.003 172.115 183.524 178.997 182.263 185.539C185.53 182.224 187.156 177.365 186.543 172.752C185.929 168.139 183.09 163.873 179.07 161.526C181.514 153.446 179.421 144.153 173.747 137.901C168.074 131.648 145.062 132.713 136.779 134.359" fill="#2F2E41"/>
<path d="M136.134 164.151C125.164 165.334 117.244 174.832 110.556 183.604C106.701 188.659 102.663 194.243 102.76 200.599C102.858 207.025 107.156 212.536 109.21 218.626C112.568 228.58 109.295 240.423 101.303 247.244C109.2 248.742 117.738 242.823 119.101 234.904C120.688 225.685 113.697 216.788 114.525 207.471C115.255 199.262 121.726 192.944 127.228 186.807C132.73 180.669 137.897 172.525 135.366 164.682" fill="#2F2E41"/>
<path d="M156.088 252.113L108.153 239.008L58.736 259.17L38.5 425L158.578 430.543V403.551C158.578 403.551 179.756 377.115 175.722 338.808L171.688 300.501L156.088 252.113Z" fill="#023047"/>
<path d="M178.243 320.159L83.4442 315.118L57.7274 388.204C57.7274 388.204 43.5425 392.242 38.5 424.5C65.5 469 56.3885 454.5 83.4442 484C110.5 513.5 170.668 541.935 170.668 541.935L158.578 403.551C158.578 403.551 186.804 342.336 183.532 331.751C180.26 321.167 178.243 320.159 178.243 320.159Z" fill="#3F3D56"/>
<path d="M105.631 239.512H82.4357V325.199H105.631V239.512Z" fill="#3F3D56"/>
<path d="M177.235 258.666H154.039V329.231H177.235V258.666Z" fill="#3F3D56"/>
<path d="M386.971 260.178L434.907 247.073L484.323 267.235L505.502 434.575L384.482 438.608V411.616C384.482 411.616 372.102 384.02 383.978 347.377C395.575 311.59 371.371 308.566 371.371 308.566L386.971 260.178Z" fill="#023047"/>
<path d="M364.881 328.455L459.68 323.414L485.397 396.5C485.397 396.5 495.023 430.473 500.065 462.732C474 495.5 466.63 502.963 432.565 522.732C398.5 542.5 372.457 550.232 372.457 550.232L367.907 417.166L364.881 328.455Z" fill="#3F3D56"/>
<path d="M460.624 247.577H437.428V333.263H460.624V247.577Z" fill="#3F3D56"/>
<path d="M389.02 266.731H365.825V337.296H389.02V266.731Z" fill="#3F3D56"/>
<path d="M403.162 238.364C432.449 238.364 456.191 214.632 456.191 185.357C456.191 156.081 432.449 132.349 403.162 132.349C373.874 132.349 350.132 156.081 350.132 185.357C350.132 214.632 373.874 238.364 403.162 238.364Z" fill="#A0616A"/>
<path d="M455.323 214.112C455.323 214.112 429.667 183.337 419.404 185.902C409.141 188.466 415.556 192.313 415.556 192.313L389.899 164.103C389.899 164.103 369.374 156.41 350.132 180.773C350.132 180.773 338.587 160.256 350.132 148.716C361.677 137.175 365.526 138.458 368.091 132.046C370.657 125.635 388.616 120.506 388.616 120.506C388.616 120.506 387.586 111.278 393.233 115.892C398.879 120.506 412.98 120.506 412.98 120.506C412.98 120.506 413.061 115.377 418.798 120.506C424.535 125.635 430.949 123.07 430.949 123.07C430.949 123.07 430.949 131.945 435.439 131.996C439.929 132.046 447.626 125.635 448.909 130.764C450.192 135.893 459.171 138.458 460.454 153.845C461.737 169.232 455.323 214.112 455.323 214.112Z" fill="#2F2E41"/>
<path d="M258.647 293.228L299.704 370.812L294.076 373.788L253.019 296.204C252.423 295.078 252.854 293.68 253.98 293.084L255.526 292.267C256.652 291.671 258.051 292.102 258.647 293.228Z" fill="#3F3D56"/>
<path d="M327.048 400.133C316.603 397.441 305.675 402.208 300.433 411.632C293.87 423.433 286.371 433.114 288.882 410.041C291.647 384.64 276.739 364.125 288.455 357.93C300.17 351.735 312.268 370.562 331.309 387.608C348.957 403.406 338.78 403.157 327.048 400.133Z" fill="#3F3D56"/>
<path d="M266.587 308.923C278.428 303.519 290.816 305.245 294.256 312.779C297.695 320.312 290.884 330.797 279.038 336.201C274.336 338.425 269.169 339.491 263.97 339.31L213.511 361.574L203.563 337.682L254.363 318.27C257.633 314.223 261.824 311.018 266.587 308.923Z" fill="#FFB6B6"/>
<path d="M63.2447 250.393C52.9441 257.633 50.0106 271.605 56.5348 282.371C79.8057 320.769 130.366 403.59 133.648 403.77C137.92 404.004 244.246 353.423 244.246 353.423L235.163 323.657L155.357 346.419L97.0878 256.917C89.6906 245.555 74.3386 242.596 63.2447 250.393Z" fill="#023047"/>
<path d="M271.633 428.074L408.027 355.955L424.77 387.594C439.213 414.887 428.772 448.765 401.468 463.202L364.016 483.005C336.713 497.442 302.82 487.005 288.377 459.713L271.633 428.074Z" fill="#FB8500"/>
<path d="M387.19 476.551C375.35 481.957 362.962 480.233 359.521 472.7C356.081 465.167 362.89 454.681 374.735 449.275C379.437 447.05 384.604 445.984 389.803 446.164L440.259 423.892L450.211 447.783L399.413 467.203C396.144 471.25 391.953 474.456 387.19 476.551Z" fill="#A0616A"/>
<path d="M489.811 263.308C502.316 261.828 513.83 270.276 516.159 282.645C524.468 326.765 542.115 422.171 539.791 424.494C536.766 427.519 423.813 460.785 423.813 460.785L410.703 432.559L485.332 396.268L468.965 290.745C466.887 277.348 476.343 264.903 489.811 263.308Z" fill="#023047"/>
</g>
<defs>
<clipPath id="clip0_803_212">
<rect width="522" height="449" fill="white" transform="translate(18 101)"/>
</clipPath>
</defs>
</svg>
