<svg width="6" height="6" viewBox="0 0 6 6" fill="none" xmlns="http://www.w3.org/2000/svg">
<g clip-path="url(#clip0_67_106)">
<rect width="6" height="6" rx="1" fill="#023047"/>
<path d="M0.75 2V4.75C0.75 5.30025 1.1985 5.5 1.5 5.5H5.25V5H1.503C1.3875 4.997 1.25 4.9515 1.25 4.75C1.25 4.5485 1.3875 4.503 1.503 4.5H5.25V1C5.25 0.72425 5.02575 0.5 4.75 0.5H1.5C1.1985 0.5 0.75 0.69975 0.75 1.25V2ZM1.5 1H4.75V4H1.25V1.25C1.25 1.0485 1.3875 1.003 1.5 1Z" fill="#0FA3B1"/>
<path d="M2.99921 3.50003L3.83671 2.67778C3.88835 2.62812 3.92943 2.56854 3.95749 2.50262C3.98555 2.4367 4.00001 2.3658 4.00001 2.29415C4.00001 2.22251 3.98555 2.1516 3.95749 2.08568C3.92943 2.01976 3.88835 1.96019 3.83671 1.91053C3.73261 1.80778 3.59223 1.75017 3.44596 1.75017C3.29969 1.75017 3.15931 1.80778 3.05521 1.91053L2.99921 1.96503L2.94321 1.91028C2.83915 1.80754 2.69881 1.74994 2.55259 1.74994C2.40636 1.74994 2.26602 1.80754 2.16196 1.91028C2.11032 1.95994 2.06924 2.01951 2.04118 2.08543C2.01312 2.15135 1.99866 2.22226 1.99866 2.2939C1.99866 2.36555 2.01312 2.43645 2.04118 2.50237C2.06924 2.56829 2.11032 2.62787 2.16196 2.67753L2.99921 3.50003Z" fill="#0FA3B1"/>
</g>
<defs>
<clipPath id="clip0_67_106">
<rect width="6" height="6" rx="1" fill="white"/>
</clipPath>
</defs>
</svg>
