<svg width="38" height="38" viewBox="0 0 38 38" fill="none" xmlns="http://www.w3.org/2000/svg">
<path d="M4.75 12.6667V30.0833C4.75 33.5682 7.5905 34.8333 9.5 34.8333H33.25V31.6667H9.519C8.7875 31.6477 7.91667 31.3595 7.91667 30.0833C7.91667 28.8072 8.7875 28.519 9.519 28.5H33.25V6.33332C33.25 4.58691 31.8298 3.16666 30.0833 3.16666H9.5C7.5905 3.16666 4.75 4.43174 4.75 7.91666V12.6667ZM9.5 6.33332H30.0833V25.3333H7.91667V7.91666C7.91667 6.64049 8.7875 6.35232 9.5 6.33332Z" fill="#0FA3B1"/>
<path d="M18.9953 22.1667L24.2994 16.9591C24.6265 16.6445 24.8867 16.2672 25.0644 15.8497C25.2421 15.4323 25.3337 14.9832 25.3337 14.5294C25.3337 14.0757 25.2421 13.6266 25.0644 13.2092C24.8867 12.7917 24.6265 12.4143 24.2994 12.0998C23.6401 11.4491 22.7511 11.0842 21.8247 11.0842C20.8983 11.0842 20.0093 11.4491 19.3499 12.0998L18.9953 12.445L18.6406 12.0982C17.9816 11.4476 17.0928 11.0828 16.1667 11.0828C15.2406 11.0828 14.3517 11.4476 13.6927 12.0982C13.3657 12.4128 13.1055 12.7901 12.9278 13.2076C12.7501 13.6251 12.6584 14.0741 12.6584 14.5279C12.6584 14.9816 12.7501 15.4307 12.9278 15.8482C13.1055 16.2657 13.3657 16.643 13.6927 16.9575L18.9953 22.1667Z" fill="#0FA3B1"/>
</svg>
